M48
; DRILL file {KiCad 8.0.7} date 2025-02-28T09:56:07-0800
; FORMAT={-:-/ absolute / inch / decimal}
; #@! TF.CreationDate,2025-02-28T09:56:07-08:00
; #@! TF.GenerationSoftware,Kicad,Pcbnew,8.0.7
; #@! TF.FileFunction,Plated,1,2,PTH
FMAT,2
INCH
; #@! TA.AperFunction,Plated,PTH,ComponentDrill
T1C0.0295
; #@! TA.AperFunction,Plated,PTH,ComponentDrill
T2C0.0354
; #@! TA.AperFunction,Plated,PTH,ComponentDrill
T3C0.0394
; #@! TA.AperFunction,Plated,PTH,ComponentDrill
T4C0.0400
%
G90
G05
T1
X8.2677Y-2.3228
X8.3465Y-2.3228
T2
X8.2374Y-2.6969
X8.3374Y-2.6969
T3
X7.1638Y-3.3071
X7.2638Y-3.3071
X7.3638Y-3.3071
X7.4638Y-3.3071
X8.3071Y-3.0673
X8.3071Y-3.1673
X8.3071Y-3.2673
T4
X7.1409Y-2.2925
X7.1409Y-2.3925
X7.1409Y-2.4925
X7.1409Y-2.5925
X7.1409Y-2.6925
X7.1409Y-2.7925
X7.1409Y-2.8925
X7.7409Y-2.2925
X7.7409Y-2.3925
X7.7409Y-2.4925
X7.7409Y-2.5925
X7.7409Y-2.6925
X7.7409Y-2.7925
X7.7409Y-2.8925
M30
