%TF.GenerationSoftware,KiCad,Pcbnew,8.0.7*%
%TF.CreationDate,2025-02-27T15:03:55-08:00*%
%TF.ProjectId,514finalpcbdesign,35313466-696e-4616-9c70-636264657369,rev?*%
%TF.SameCoordinates,Original*%
%TF.FileFunction,Legend,Top*%
%TF.FilePolarity,Positive*%
%FSLAX46Y46*%
G04 Gerber Fmt 4.6, Leading zero omitted, Abs format (unit mm)*
G04 Created by KiCad (PCBNEW 8.0.7) date 2025-02-27 15:03:55*
%MOMM*%
%LPD*%
G01*
G04 APERTURE LIST*
%ADD10C,0.150000*%
%ADD11C,0.100000*%
%ADD12C,0.120000*%
G04 APERTURE END LIST*
D10*
X176069193Y-94987346D02*
X176069193Y-95701631D01*
X176069193Y-95701631D02*
X176021574Y-95844488D01*
X176021574Y-95844488D02*
X175926336Y-95939727D01*
X175926336Y-95939727D02*
X175783479Y-95987346D01*
X175783479Y-95987346D02*
X175688241Y-95987346D01*
X176497765Y-95082584D02*
X176545384Y-95034965D01*
X176545384Y-95034965D02*
X176640622Y-94987346D01*
X176640622Y-94987346D02*
X176878717Y-94987346D01*
X176878717Y-94987346D02*
X176973955Y-95034965D01*
X176973955Y-95034965D02*
X177021574Y-95082584D01*
X177021574Y-95082584D02*
X177069193Y-95177822D01*
X177069193Y-95177822D02*
X177069193Y-95273060D01*
X177069193Y-95273060D02*
X177021574Y-95415917D01*
X177021574Y-95415917D02*
X176450146Y-95987346D01*
X176450146Y-95987346D02*
X177069193Y-95987346D01*
X157735860Y-103707346D02*
X157402527Y-103231155D01*
X157164432Y-103707346D02*
X157164432Y-102707346D01*
X157164432Y-102707346D02*
X157545384Y-102707346D01*
X157545384Y-102707346D02*
X157640622Y-102754965D01*
X157640622Y-102754965D02*
X157688241Y-102802584D01*
X157688241Y-102802584D02*
X157735860Y-102897822D01*
X157735860Y-102897822D02*
X157735860Y-103040679D01*
X157735860Y-103040679D02*
X157688241Y-103135917D01*
X157688241Y-103135917D02*
X157640622Y-103183536D01*
X157640622Y-103183536D02*
X157545384Y-103231155D01*
X157545384Y-103231155D02*
X157164432Y-103231155D01*
X158307289Y-103135917D02*
X158212051Y-103088298D01*
X158212051Y-103088298D02*
X158164432Y-103040679D01*
X158164432Y-103040679D02*
X158116813Y-102945441D01*
X158116813Y-102945441D02*
X158116813Y-102897822D01*
X158116813Y-102897822D02*
X158164432Y-102802584D01*
X158164432Y-102802584D02*
X158212051Y-102754965D01*
X158212051Y-102754965D02*
X158307289Y-102707346D01*
X158307289Y-102707346D02*
X158497765Y-102707346D01*
X158497765Y-102707346D02*
X158593003Y-102754965D01*
X158593003Y-102754965D02*
X158640622Y-102802584D01*
X158640622Y-102802584D02*
X158688241Y-102897822D01*
X158688241Y-102897822D02*
X158688241Y-102945441D01*
X158688241Y-102945441D02*
X158640622Y-103040679D01*
X158640622Y-103040679D02*
X158593003Y-103088298D01*
X158593003Y-103088298D02*
X158497765Y-103135917D01*
X158497765Y-103135917D02*
X158307289Y-103135917D01*
X158307289Y-103135917D02*
X158212051Y-103183536D01*
X158212051Y-103183536D02*
X158164432Y-103231155D01*
X158164432Y-103231155D02*
X158116813Y-103326393D01*
X158116813Y-103326393D02*
X158116813Y-103516869D01*
X158116813Y-103516869D02*
X158164432Y-103612107D01*
X158164432Y-103612107D02*
X158212051Y-103659727D01*
X158212051Y-103659727D02*
X158307289Y-103707346D01*
X158307289Y-103707346D02*
X158497765Y-103707346D01*
X158497765Y-103707346D02*
X158593003Y-103659727D01*
X158593003Y-103659727D02*
X158640622Y-103612107D01*
X158640622Y-103612107D02*
X158688241Y-103516869D01*
X158688241Y-103516869D02*
X158688241Y-103326393D01*
X158688241Y-103326393D02*
X158640622Y-103231155D01*
X158640622Y-103231155D02*
X158593003Y-103183536D01*
X158593003Y-103183536D02*
X158497765Y-103135917D01*
X123735860Y-105587536D02*
X123878717Y-105635155D01*
X123878717Y-105635155D02*
X123926336Y-105682774D01*
X123926336Y-105682774D02*
X123973955Y-105778012D01*
X123973955Y-105778012D02*
X123973955Y-105920869D01*
X123973955Y-105920869D02*
X123926336Y-106016107D01*
X123926336Y-106016107D02*
X123878717Y-106063727D01*
X123878717Y-106063727D02*
X123783479Y-106111346D01*
X123783479Y-106111346D02*
X123402527Y-106111346D01*
X123402527Y-106111346D02*
X123402527Y-105111346D01*
X123402527Y-105111346D02*
X123735860Y-105111346D01*
X123735860Y-105111346D02*
X123831098Y-105158965D01*
X123831098Y-105158965D02*
X123878717Y-105206584D01*
X123878717Y-105206584D02*
X123926336Y-105301822D01*
X123926336Y-105301822D02*
X123926336Y-105397060D01*
X123926336Y-105397060D02*
X123878717Y-105492298D01*
X123878717Y-105492298D02*
X123831098Y-105539917D01*
X123831098Y-105539917D02*
X123735860Y-105587536D01*
X123735860Y-105587536D02*
X123402527Y-105587536D01*
X124402527Y-106111346D02*
X124402527Y-105444679D01*
X124402527Y-105635155D02*
X124450146Y-105539917D01*
X124450146Y-105539917D02*
X124497765Y-105492298D01*
X124497765Y-105492298D02*
X124593003Y-105444679D01*
X124593003Y-105444679D02*
X124688241Y-105444679D01*
X125450146Y-106111346D02*
X125450146Y-105111346D01*
X125450146Y-106063727D02*
X125354908Y-106111346D01*
X125354908Y-106111346D02*
X125164432Y-106111346D01*
X125164432Y-106111346D02*
X125069194Y-106063727D01*
X125069194Y-106063727D02*
X125021575Y-106016107D01*
X125021575Y-106016107D02*
X124973956Y-105920869D01*
X124973956Y-105920869D02*
X124973956Y-105635155D01*
X124973956Y-105635155D02*
X125021575Y-105539917D01*
X125021575Y-105539917D02*
X125069194Y-105492298D01*
X125069194Y-105492298D02*
X125164432Y-105444679D01*
X125164432Y-105444679D02*
X125354908Y-105444679D01*
X125354908Y-105444679D02*
X125450146Y-105492298D01*
X126450146Y-106111346D02*
X125878718Y-106111346D01*
X126164432Y-106111346D02*
X126164432Y-105111346D01*
X126164432Y-105111346D02*
X126069194Y-105254203D01*
X126069194Y-105254203D02*
X125973956Y-105349441D01*
X125973956Y-105349441D02*
X125878718Y-105397060D01*
D11*
X158530622Y-67159946D02*
X158530622Y-67969469D01*
X158530622Y-67969469D02*
X158578241Y-68064707D01*
X158578241Y-68064707D02*
X158625860Y-68112327D01*
X158625860Y-68112327D02*
X158721098Y-68159946D01*
X158721098Y-68159946D02*
X158911574Y-68159946D01*
X158911574Y-68159946D02*
X159006812Y-68112327D01*
X159006812Y-68112327D02*
X159054431Y-68064707D01*
X159054431Y-68064707D02*
X159102050Y-67969469D01*
X159102050Y-67969469D02*
X159102050Y-67159946D01*
X160006812Y-67493279D02*
X160006812Y-68159946D01*
X159768717Y-67112327D02*
X159530622Y-67826612D01*
X159530622Y-67826612D02*
X160149669Y-67826612D01*
X122823003Y-49309946D02*
X122823003Y-48309946D01*
X122823003Y-48309946D02*
X123156336Y-49024231D01*
X123156336Y-49024231D02*
X123489669Y-48309946D01*
X123489669Y-48309946D02*
X123489669Y-49309946D01*
X123870622Y-48309946D02*
X124489669Y-48309946D01*
X124489669Y-48309946D02*
X124156336Y-48690898D01*
X124156336Y-48690898D02*
X124299193Y-48690898D01*
X124299193Y-48690898D02*
X124394431Y-48738517D01*
X124394431Y-48738517D02*
X124442050Y-48786136D01*
X124442050Y-48786136D02*
X124489669Y-48881374D01*
X124489669Y-48881374D02*
X124489669Y-49119469D01*
X124489669Y-49119469D02*
X124442050Y-49214707D01*
X124442050Y-49214707D02*
X124394431Y-49262327D01*
X124394431Y-49262327D02*
X124299193Y-49309946D01*
X124299193Y-49309946D02*
X124013479Y-49309946D01*
X124013479Y-49309946D02*
X123918241Y-49262327D01*
X123918241Y-49262327D02*
X123870622Y-49214707D01*
D10*
X164569194Y-98479727D02*
X164712051Y-98527346D01*
X164712051Y-98527346D02*
X164950146Y-98527346D01*
X164950146Y-98527346D02*
X165045384Y-98479727D01*
X165045384Y-98479727D02*
X165093003Y-98432107D01*
X165093003Y-98432107D02*
X165140622Y-98336869D01*
X165140622Y-98336869D02*
X165140622Y-98241631D01*
X165140622Y-98241631D02*
X165093003Y-98146393D01*
X165093003Y-98146393D02*
X165045384Y-98098774D01*
X165045384Y-98098774D02*
X164950146Y-98051155D01*
X164950146Y-98051155D02*
X164759670Y-98003536D01*
X164759670Y-98003536D02*
X164664432Y-97955917D01*
X164664432Y-97955917D02*
X164616813Y-97908298D01*
X164616813Y-97908298D02*
X164569194Y-97813060D01*
X164569194Y-97813060D02*
X164569194Y-97717822D01*
X164569194Y-97717822D02*
X164616813Y-97622584D01*
X164616813Y-97622584D02*
X164664432Y-97574965D01*
X164664432Y-97574965D02*
X164759670Y-97527346D01*
X164759670Y-97527346D02*
X164997765Y-97527346D01*
X164997765Y-97527346D02*
X165140622Y-97574965D01*
X165473956Y-97527346D02*
X165712051Y-98527346D01*
X165712051Y-98527346D02*
X165902527Y-97813060D01*
X165902527Y-97813060D02*
X166093003Y-98527346D01*
X166093003Y-98527346D02*
X166331099Y-97527346D01*
X167235860Y-98527346D02*
X166664432Y-98527346D01*
X166950146Y-98527346D02*
X166950146Y-97527346D01*
X166950146Y-97527346D02*
X166854908Y-97670203D01*
X166854908Y-97670203D02*
X166759670Y-97765441D01*
X166759670Y-97765441D02*
X166664432Y-97813060D01*
X150664432Y-102397346D02*
X150664432Y-101397346D01*
X150664432Y-101397346D02*
X150902527Y-101397346D01*
X150902527Y-101397346D02*
X151045384Y-101444965D01*
X151045384Y-101444965D02*
X151140622Y-101540203D01*
X151140622Y-101540203D02*
X151188241Y-101635441D01*
X151188241Y-101635441D02*
X151235860Y-101825917D01*
X151235860Y-101825917D02*
X151235860Y-101968774D01*
X151235860Y-101968774D02*
X151188241Y-102159250D01*
X151188241Y-102159250D02*
X151140622Y-102254488D01*
X151140622Y-102254488D02*
X151045384Y-102349727D01*
X151045384Y-102349727D02*
X150902527Y-102397346D01*
X150902527Y-102397346D02*
X150664432Y-102397346D01*
X152188241Y-102397346D02*
X151616813Y-102397346D01*
X151902527Y-102397346D02*
X151902527Y-101397346D01*
X151902527Y-101397346D02*
X151807289Y-101540203D01*
X151807289Y-101540203D02*
X151712051Y-101635441D01*
X151712051Y-101635441D02*
X151616813Y-101683060D01*
X175569193Y-89307346D02*
X175569193Y-90021631D01*
X175569193Y-90021631D02*
X175521574Y-90164488D01*
X175521574Y-90164488D02*
X175426336Y-90259727D01*
X175426336Y-90259727D02*
X175283479Y-90307346D01*
X175283479Y-90307346D02*
X175188241Y-90307346D01*
X176569193Y-90307346D02*
X175997765Y-90307346D01*
X176283479Y-90307346D02*
X176283479Y-89307346D01*
X176283479Y-89307346D02*
X176188241Y-89450203D01*
X176188241Y-89450203D02*
X176093003Y-89545441D01*
X176093003Y-89545441D02*
X175997765Y-89593060D01*
D12*
%TO.C,J2*%
X175072527Y-96532527D02*
X176402527Y-96532527D01*
X175072527Y-97862527D02*
X175072527Y-96532527D01*
X175072527Y-99132527D02*
X175072527Y-106812527D01*
X175072527Y-99132527D02*
X177732527Y-99132527D01*
X175072527Y-106812527D02*
X177732527Y-106812527D01*
X177732527Y-99132527D02*
X177732527Y-106812527D01*
%TO.C,R8*%
X157675463Y-104167527D02*
X158129591Y-104167527D01*
X157675463Y-105637527D02*
X158129591Y-105637527D01*
%TO.C,Brd1*%
X111502527Y-93102527D02*
X138902527Y-93102527D01*
X111502527Y-120402527D02*
X111502527Y-93102527D01*
X111924527Y-96397527D02*
X135024527Y-96397527D01*
X111924527Y-112997527D02*
X111924527Y-96397527D01*
X120203527Y-93591527D02*
X120203527Y-96004527D01*
X120203527Y-93591527D02*
X129982527Y-93591527D01*
X129982527Y-93591527D02*
X129982527Y-96004527D01*
X129982527Y-96004527D02*
X120203527Y-96004527D01*
X135024527Y-96397527D02*
X138110527Y-96397527D01*
X135024527Y-112997527D02*
X111924527Y-112997527D01*
X135024527Y-112997527D02*
X138364527Y-113022527D01*
X138364527Y-96385527D02*
X138110527Y-96397527D01*
X138364527Y-113022527D02*
X138364527Y-96385527D01*
X138902527Y-93102527D02*
X138902527Y-120402527D01*
X138902527Y-120402527D02*
X111502527Y-120402527D01*
D11*
%TO.C,U4*%
X154212527Y-71742527D02*
X154212527Y-75552527D01*
X154212527Y-75552527D02*
X161832527Y-75552527D01*
X161832527Y-75552527D02*
X161832527Y-71742527D01*
D12*
%TO.C,SW1*%
X164572527Y-99072527D02*
X165902527Y-99072527D01*
X164572527Y-100402527D02*
X164572527Y-99072527D01*
X164572527Y-101672527D02*
X164572527Y-106812527D01*
X164572527Y-101672527D02*
X167232527Y-101672527D01*
X164572527Y-106812527D02*
X167232527Y-106812527D01*
X167232527Y-101672527D02*
X167232527Y-106812527D01*
%TO.C,D1*%
X149842527Y-103666527D02*
X149842527Y-103822527D01*
X149842527Y-105982527D02*
X149842527Y-106138527D01*
X149842527Y-103667011D02*
G75*
G02*
X153073924Y-103822466I1560000J-1235516D01*
G01*
X150361566Y-103822527D02*
G75*
G02*
X152443437Y-103822478I1040961J-1080000D01*
G01*
X152443437Y-105982576D02*
G75*
G02*
X150361566Y-105982527I-1040910J1080049D01*
G01*
X153073924Y-105982588D02*
G75*
G02*
X149842527Y-106138043I-1671397J1080061D01*
G01*
%TO.C,J1*%
X172842527Y-84042527D02*
X172842527Y-88762527D01*
X172842527Y-86152527D02*
X173452527Y-86152527D01*
X172842527Y-87452527D02*
X173452527Y-87452527D01*
X172842527Y-88762527D02*
X178962527Y-88762527D01*
X173452527Y-84652527D02*
X173452527Y-88152527D01*
X173452527Y-88152527D02*
X175402527Y-88152527D01*
X175402527Y-88152527D02*
X175402527Y-88762527D01*
X175802527Y-85152527D02*
X175802527Y-84652527D01*
X175902527Y-84652527D02*
X175902527Y-85152527D01*
X176002527Y-84652527D02*
X176002527Y-85152527D01*
X176002527Y-85152527D02*
X175802527Y-85152527D01*
X176402527Y-88152527D02*
X178352527Y-88152527D01*
X176402527Y-88762527D02*
X176402527Y-88152527D01*
X177202527Y-88762527D02*
X177202527Y-88962527D01*
X177202527Y-88862527D02*
X177502527Y-88862527D01*
X177202527Y-88962527D02*
X177502527Y-88962527D01*
X177502527Y-88962527D02*
X177502527Y-88762527D01*
X178012527Y-89062527D02*
X179262527Y-89062527D01*
X178352527Y-84652527D02*
X173452527Y-84652527D01*
X178352527Y-88152527D02*
X178352527Y-84652527D01*
X178962527Y-84042527D02*
X172842527Y-84042527D01*
X178962527Y-86152527D02*
X178352527Y-86152527D01*
X178962527Y-87452527D02*
X178352527Y-87452527D01*
X178962527Y-88762527D02*
X178962527Y-84042527D01*
X179262527Y-89062527D02*
X179262527Y-87812527D01*
%TD*%
M02*
