%TF.GenerationSoftware,KiCad,Pcbnew,8.0.7*%
%TF.CreationDate,2025-02-27T15:03:55-08:00*%
%TF.ProjectId,514finalpcbdesign,35313466-696e-4616-9c70-636264657369,rev?*%
%TF.SameCoordinates,Original*%
%TF.FileFunction,Copper,L2,Bot*%
%TF.FilePolarity,Positive*%
%FSLAX46Y46*%
G04 Gerber Fmt 4.6, Leading zero omitted, Abs format (unit mm)*
G04 Created by KiCad (PCBNEW 8.0.7) date 2025-02-27 15:03:55*
%MOMM*%
%LPD*%
G01*
G04 APERTURE LIST*
G04 Aperture macros list*
%AMRoundRect*
0 Rectangle with rounded corners*
0 $1 Rounding radius*
0 $2 $3 $4 $5 $6 $7 $8 $9 X,Y pos of 4 corners*
0 Add a 4 corners polygon primitive as box body*
4,1,4,$2,$3,$4,$5,$6,$7,$8,$9,$2,$3,0*
0 Add four circle primitives for the rounded corners*
1,1,$1+$1,$2,$3*
1,1,$1+$1,$4,$5*
1,1,$1+$1,$6,$7*
1,1,$1+$1,$8,$9*
0 Add four rect primitives between the rounded corners*
20,1,$1+$1,$2,$3,$4,$5,0*
20,1,$1+$1,$4,$5,$6,$7,0*
20,1,$1+$1,$6,$7,$8,$9,0*
20,1,$1+$1,$8,$9,$2,$3,0*%
G04 Aperture macros list end*
%TA.AperFunction,ComponentPad*%
%ADD10R,1.700000X1.700000*%
%TD*%
%TA.AperFunction,ComponentPad*%
%ADD11O,1.700000X1.700000*%
%TD*%
%TA.AperFunction,ComponentPad*%
%ADD12O,1.600000X2.000000*%
%TD*%
%TA.AperFunction,ComponentPad*%
%ADD13O,3.556000X1.778000*%
%TD*%
%TA.AperFunction,ComponentPad*%
%ADD14C,1.700000*%
%TD*%
%TA.AperFunction,ComponentPad*%
%ADD15R,1.800000X1.800000*%
%TD*%
%TA.AperFunction,ComponentPad*%
%ADD16C,1.800000*%
%TD*%
%TA.AperFunction,ComponentPad*%
%ADD17RoundRect,0.250000X0.350000X0.625000X-0.350000X0.625000X-0.350000X-0.625000X0.350000X-0.625000X0*%
%TD*%
%TA.AperFunction,ComponentPad*%
%ADD18O,1.200000X1.750000*%
%TD*%
%TA.AperFunction,ViaPad*%
%ADD19C,0.600000*%
%TD*%
%TA.AperFunction,Conductor*%
%ADD20C,0.200000*%
%TD*%
G04 APERTURE END LIST*
D10*
%TO.P,J2,1,Pin_1*%
%TO.N,/3.7V*%
X176402527Y-97862527D03*
D11*
%TO.P,J2,2,Pin_2*%
%TO.N,GND*%
X176402527Y-100402527D03*
%TO.P,J2,3,Pin_3*%
%TO.N,+5V*%
X176402527Y-102942527D03*
%TO.P,J2,4,Pin_4*%
%TO.N,GND*%
X176402527Y-105482527D03*
%TD*%
D12*
%TO.P,Brd1,1,GND*%
%TO.N,GND*%
X121282527Y-94802527D03*
%TO.P,Brd1,2,VCC*%
%TO.N,Net-(Brd1-VCC)*%
X123822527Y-94802527D03*
%TO.P,Brd1,3,SCL*%
%TO.N,Net-(Brd1-SCL)*%
X126362527Y-94802527D03*
%TO.P,Brd1,4,SDA*%
%TO.N,Net-(Brd1-SDA)*%
X128902527Y-94802527D03*
%TD*%
D13*
%TO.P,U4,1,PA02_A0_D0*%
%TO.N,Net-(U4-PA02_A0_D0)*%
X149640527Y-74282527D03*
%TO.P,U4,2,PA4_A1_D1*%
%TO.N,Net-(M3--)*%
X149640527Y-76822527D03*
%TO.P,U4,3,PA10_A2_D2*%
%TO.N,Net-(U4-PA10_A2_D2)*%
X149640527Y-79362527D03*
%TO.P,U4,4,PA11_A3_D3*%
%TO.N,Net-(U4-PA11_A3_D3)*%
X149640527Y-81902527D03*
%TO.P,U4,5,PA8_A4_D4_SDA*%
%TO.N,Net-(Brd1-SDA)*%
X149640527Y-84442527D03*
%TO.P,U4,6,PA9_A5_D5_SCL*%
%TO.N,Net-(Brd1-SCL)*%
X149640527Y-86982527D03*
%TO.P,U4,7,PB08_A6_D6_TX*%
%TO.N,unconnected-(U4-PB08_A6_D6_TX-Pad7)*%
X149640527Y-89522527D03*
%TO.P,U4,8,PB09_A7_D7_RX*%
%TO.N,Net-(SW1-A)*%
X166404527Y-74282527D03*
%TO.P,U4,9,PA7_A8_D8_SCK*%
%TO.N,GND*%
X166404527Y-76822527D03*
%TO.P,U4,10,PA5_A9_D9_MISO*%
%TO.N,Net-(Brd1-VCC)*%
X166404527Y-79362527D03*
%TO.P,U4,11,PA6_A10_D10_MOSI*%
%TO.N,unconnected-(U4-PA6_A10_D10_MOSI-Pad11)*%
X166404527Y-81902527D03*
%TO.P,U4,12,3V3*%
%TO.N,unconnected-(U4-3V3-Pad12)*%
X166404527Y-84442527D03*
%TO.P,U4,13,GND*%
%TO.N,unconnected-(U4-GND-Pad13)*%
X166404527Y-86982527D03*
%TO.P,U4,14,5V*%
%TO.N,unconnected-(U4-5V-Pad14)*%
X166404527Y-89522527D03*
%TD*%
D14*
%TO.P,M3,1*%
%TO.N,Net-(U4-PA02_A0_D0)*%
X136332527Y-64092527D03*
%TO.P,M3,2,-*%
%TO.N,Net-(M3--)*%
X136332527Y-71712527D03*
%TO.P,M3,3*%
%TO.N,Net-(U4-PA10_A2_D2)*%
X113472527Y-64092527D03*
%TO.P,M3,4*%
%TO.N,Net-(U4-PA11_A3_D3)*%
X113472527Y-71712527D03*
%TD*%
D10*
%TO.P,SW1,1,A*%
%TO.N,Net-(SW1-A)*%
X165902527Y-100402527D03*
D11*
%TO.P,SW1,2,B*%
%TO.N,+5V*%
X165902527Y-102942527D03*
%TO.P,SW1,3,C*%
%TO.N,unconnected-(SW1-C-Pad3)*%
X165902527Y-105482527D03*
%TD*%
D15*
%TO.P,D1,1,K*%
%TO.N,GND*%
X150132527Y-104902527D03*
D16*
%TO.P,D1,2,A*%
%TO.N,Net-(D1-A)*%
X152672527Y-104902527D03*
%TD*%
D17*
%TO.P,J1,1,Pin_1*%
%TO.N,/3.7V*%
X176902527Y-86952527D03*
D18*
%TO.P,J1,2,Pin_2*%
%TO.N,GND*%
X174902527Y-86952527D03*
%TD*%
D19*
%TO.N,Net-(SW1-A)*%
X169500000Y-76000000D03*
X169500000Y-82500000D03*
%TO.N,GND*%
X162500000Y-77000000D03*
X160753527Y-83253527D03*
%TO.N,Net-(Brd1-SCL)*%
X130402527Y-88902527D03*
X126362527Y-91402527D03*
%TO.N,Net-(Brd1-VCC)*%
X143091527Y-80713527D03*
X123902527Y-85402527D03*
%TD*%
D20*
%TO.N,Net-(SW1-A)*%
X169500000Y-82500000D02*
X169500000Y-76000000D01*
%TO.N,GND*%
X165465054Y-77000000D02*
X165642527Y-76822527D01*
X160753527Y-78746473D02*
X162500000Y-77000000D01*
X160753527Y-83253527D02*
X160753527Y-78746473D01*
%TO.N,Net-(Brd1-SCL)*%
X128862527Y-88902527D02*
X126362527Y-91402527D01*
X130402527Y-88902527D02*
X128862527Y-88902527D01*
%TO.N,Net-(Brd1-VCC)*%
X143091527Y-80713527D02*
X141902527Y-81902527D01*
X127402527Y-81902527D02*
X123902527Y-85402527D01*
X141902527Y-81902527D02*
X127402527Y-81902527D01*
%TD*%
M02*
