%TF.GenerationSoftware,KiCad,Pcbnew,8.0.7*%
%TF.CreationDate,2025-02-27T15:03:55-08:00*%
%TF.ProjectId,514finalpcbdesign,35313466-696e-4616-9c70-636264657369,rev?*%
%TF.SameCoordinates,Original*%
%TF.FileFunction,Profile,NP*%
%FSLAX46Y46*%
G04 Gerber Fmt 4.6, Leading zero omitted, Abs format (unit mm)*
G04 Created by KiCad (PCBNEW 8.0.7) date 2025-02-27 15:03:55*
%MOMM*%
%LPD*%
G01*
G04 APERTURE LIST*
%TA.AperFunction,Profile*%
%ADD10C,0.050000*%
%TD*%
%ADD11C,0.150000*%
G04 APERTURE END LIST*
D10*
X104451264Y-43451264D02*
X185451264Y-43451264D01*
X185451264Y-124951264D01*
X104451264Y-124951264D01*
X104451264Y-43451264D01*
D11*
X269193922Y-192869819D02*
X269527255Y-193869819D01*
X269527255Y-193869819D02*
X269860588Y-192869819D01*
X270098684Y-192869819D02*
X270717731Y-192869819D01*
X270717731Y-192869819D02*
X270384398Y-193250771D01*
X270384398Y-193250771D02*
X270527255Y-193250771D01*
X270527255Y-193250771D02*
X270622493Y-193298390D01*
X270622493Y-193298390D02*
X270670112Y-193346009D01*
X270670112Y-193346009D02*
X270717731Y-193441247D01*
X270717731Y-193441247D02*
X270717731Y-193679342D01*
X270717731Y-193679342D02*
X270670112Y-193774580D01*
X270670112Y-193774580D02*
X270622493Y-193822200D01*
X270622493Y-193822200D02*
X270527255Y-193869819D01*
X270527255Y-193869819D02*
X270241541Y-193869819D01*
X270241541Y-193869819D02*
X270146303Y-193822200D01*
X270146303Y-193822200D02*
X270098684Y-193774580D01*
X207527255Y-192369819D02*
X207622493Y-192369819D01*
X207622493Y-192369819D02*
X207717731Y-192417438D01*
X207717731Y-192417438D02*
X207765350Y-192465057D01*
X207765350Y-192465057D02*
X207812969Y-192560295D01*
X207812969Y-192560295D02*
X207860588Y-192750771D01*
X207860588Y-192750771D02*
X207860588Y-192988866D01*
X207860588Y-192988866D02*
X207812969Y-193179342D01*
X207812969Y-193179342D02*
X207765350Y-193274580D01*
X207765350Y-193274580D02*
X207717731Y-193322200D01*
X207717731Y-193322200D02*
X207622493Y-193369819D01*
X207622493Y-193369819D02*
X207527255Y-193369819D01*
X207527255Y-193369819D02*
X207432017Y-193322200D01*
X207432017Y-193322200D02*
X207384398Y-193274580D01*
X207384398Y-193274580D02*
X207336779Y-193179342D01*
X207336779Y-193179342D02*
X207289160Y-192988866D01*
X207289160Y-192988866D02*
X207289160Y-192750771D01*
X207289160Y-192750771D02*
X207336779Y-192560295D01*
X207336779Y-192560295D02*
X207384398Y-192465057D01*
X207384398Y-192465057D02*
X207432017Y-192417438D01*
X207432017Y-192417438D02*
X207527255Y-192369819D01*
X208241541Y-192465057D02*
X208289160Y-192417438D01*
X208289160Y-192417438D02*
X208384398Y-192369819D01*
X208384398Y-192369819D02*
X208622493Y-192369819D01*
X208622493Y-192369819D02*
X208717731Y-192417438D01*
X208717731Y-192417438D02*
X208765350Y-192465057D01*
X208765350Y-192465057D02*
X208812969Y-192560295D01*
X208812969Y-192560295D02*
X208812969Y-192655533D01*
X208812969Y-192655533D02*
X208765350Y-192798390D01*
X208765350Y-192798390D02*
X208193922Y-193369819D01*
X208193922Y-193369819D02*
X208812969Y-193369819D01*
X209955826Y-192322200D02*
X209098684Y-193607914D01*
X210812969Y-193369819D02*
X210241541Y-193369819D01*
X210527255Y-193369819D02*
X210527255Y-192369819D01*
X210527255Y-192369819D02*
X210432017Y-192512676D01*
X210432017Y-192512676D02*
X210336779Y-192607914D01*
X210336779Y-192607914D02*
X210241541Y-192655533D01*
X211146303Y-192369819D02*
X211765350Y-192369819D01*
X211765350Y-192369819D02*
X211432017Y-192750771D01*
X211432017Y-192750771D02*
X211574874Y-192750771D01*
X211574874Y-192750771D02*
X211670112Y-192798390D01*
X211670112Y-192798390D02*
X211717731Y-192846009D01*
X211717731Y-192846009D02*
X211765350Y-192941247D01*
X211765350Y-192941247D02*
X211765350Y-193179342D01*
X211765350Y-193179342D02*
X211717731Y-193274580D01*
X211717731Y-193274580D02*
X211670112Y-193322200D01*
X211670112Y-193322200D02*
X211574874Y-193369819D01*
X211574874Y-193369819D02*
X211289160Y-193369819D01*
X211289160Y-193369819D02*
X211193922Y-193322200D01*
X211193922Y-193322200D02*
X211146303Y-193274580D01*
X212908207Y-192322200D02*
X212051065Y-193607914D01*
X213193922Y-192465057D02*
X213241541Y-192417438D01*
X213241541Y-192417438D02*
X213336779Y-192369819D01*
X213336779Y-192369819D02*
X213574874Y-192369819D01*
X213574874Y-192369819D02*
X213670112Y-192417438D01*
X213670112Y-192417438D02*
X213717731Y-192465057D01*
X213717731Y-192465057D02*
X213765350Y-192560295D01*
X213765350Y-192560295D02*
X213765350Y-192655533D01*
X213765350Y-192655533D02*
X213717731Y-192798390D01*
X213717731Y-192798390D02*
X213146303Y-193369819D01*
X213146303Y-193369819D02*
X213765350Y-193369819D01*
X214384398Y-192369819D02*
X214479636Y-192369819D01*
X214479636Y-192369819D02*
X214574874Y-192417438D01*
X214574874Y-192417438D02*
X214622493Y-192465057D01*
X214622493Y-192465057D02*
X214670112Y-192560295D01*
X214670112Y-192560295D02*
X214717731Y-192750771D01*
X214717731Y-192750771D02*
X214717731Y-192988866D01*
X214717731Y-192988866D02*
X214670112Y-193179342D01*
X214670112Y-193179342D02*
X214622493Y-193274580D01*
X214622493Y-193274580D02*
X214574874Y-193322200D01*
X214574874Y-193322200D02*
X214479636Y-193369819D01*
X214479636Y-193369819D02*
X214384398Y-193369819D01*
X214384398Y-193369819D02*
X214289160Y-193322200D01*
X214289160Y-193322200D02*
X214241541Y-193274580D01*
X214241541Y-193274580D02*
X214193922Y-193179342D01*
X214193922Y-193179342D02*
X214146303Y-192988866D01*
X214146303Y-192988866D02*
X214146303Y-192750771D01*
X214146303Y-192750771D02*
X214193922Y-192560295D01*
X214193922Y-192560295D02*
X214241541Y-192465057D01*
X214241541Y-192465057D02*
X214289160Y-192417438D01*
X214289160Y-192417438D02*
X214384398Y-192369819D01*
X215098684Y-192465057D02*
X215146303Y-192417438D01*
X215146303Y-192417438D02*
X215241541Y-192369819D01*
X215241541Y-192369819D02*
X215479636Y-192369819D01*
X215479636Y-192369819D02*
X215574874Y-192417438D01*
X215574874Y-192417438D02*
X215622493Y-192465057D01*
X215622493Y-192465057D02*
X215670112Y-192560295D01*
X215670112Y-192560295D02*
X215670112Y-192655533D01*
X215670112Y-192655533D02*
X215622493Y-192798390D01*
X215622493Y-192798390D02*
X215051065Y-193369819D01*
X215051065Y-193369819D02*
X215670112Y-193369819D01*
X216574874Y-192369819D02*
X216098684Y-192369819D01*
X216098684Y-192369819D02*
X216051065Y-192846009D01*
X216051065Y-192846009D02*
X216098684Y-192798390D01*
X216098684Y-192798390D02*
X216193922Y-192750771D01*
X216193922Y-192750771D02*
X216432017Y-192750771D01*
X216432017Y-192750771D02*
X216527255Y-192798390D01*
X216527255Y-192798390D02*
X216574874Y-192846009D01*
X216574874Y-192846009D02*
X216622493Y-192941247D01*
X216622493Y-192941247D02*
X216622493Y-193179342D01*
X216622493Y-193179342D02*
X216574874Y-193274580D01*
X216574874Y-193274580D02*
X216527255Y-193322200D01*
X216527255Y-193322200D02*
X216432017Y-193369819D01*
X216432017Y-193369819D02*
X216193922Y-193369819D01*
X216193922Y-193369819D02*
X216098684Y-193322200D01*
X216098684Y-193322200D02*
X216051065Y-193274580D01*
X189312969Y-188869819D02*
X188836779Y-188869819D01*
X188836779Y-188869819D02*
X188789160Y-189346009D01*
X188789160Y-189346009D02*
X188836779Y-189298390D01*
X188836779Y-189298390D02*
X188932017Y-189250771D01*
X188932017Y-189250771D02*
X189170112Y-189250771D01*
X189170112Y-189250771D02*
X189265350Y-189298390D01*
X189265350Y-189298390D02*
X189312969Y-189346009D01*
X189312969Y-189346009D02*
X189360588Y-189441247D01*
X189360588Y-189441247D02*
X189360588Y-189679342D01*
X189360588Y-189679342D02*
X189312969Y-189774580D01*
X189312969Y-189774580D02*
X189265350Y-189822200D01*
X189265350Y-189822200D02*
X189170112Y-189869819D01*
X189170112Y-189869819D02*
X188932017Y-189869819D01*
X188932017Y-189869819D02*
X188836779Y-189822200D01*
X188836779Y-189822200D02*
X188789160Y-189774580D01*
X190312969Y-189869819D02*
X189741541Y-189869819D01*
X190027255Y-189869819D02*
X190027255Y-188869819D01*
X190027255Y-188869819D02*
X189932017Y-189012676D01*
X189932017Y-189012676D02*
X189836779Y-189107914D01*
X189836779Y-189107914D02*
X189741541Y-189155533D01*
X191170112Y-189203152D02*
X191170112Y-189869819D01*
X190932017Y-188822200D02*
X190693922Y-189536485D01*
X190693922Y-189536485D02*
X191312969Y-189536485D01*
X192027255Y-189346009D02*
X191693922Y-189346009D01*
X191693922Y-189869819D02*
X191693922Y-188869819D01*
X191693922Y-188869819D02*
X192170112Y-188869819D01*
X192551065Y-189869819D02*
X192551065Y-189203152D01*
X192551065Y-188869819D02*
X192503446Y-188917438D01*
X192503446Y-188917438D02*
X192551065Y-188965057D01*
X192551065Y-188965057D02*
X192598684Y-188917438D01*
X192598684Y-188917438D02*
X192551065Y-188869819D01*
X192551065Y-188869819D02*
X192551065Y-188965057D01*
X193027255Y-189203152D02*
X193027255Y-189869819D01*
X193027255Y-189298390D02*
X193074874Y-189250771D01*
X193074874Y-189250771D02*
X193170112Y-189203152D01*
X193170112Y-189203152D02*
X193312969Y-189203152D01*
X193312969Y-189203152D02*
X193408207Y-189250771D01*
X193408207Y-189250771D02*
X193455826Y-189346009D01*
X193455826Y-189346009D02*
X193455826Y-189869819D01*
X194360588Y-189869819D02*
X194360588Y-189346009D01*
X194360588Y-189346009D02*
X194312969Y-189250771D01*
X194312969Y-189250771D02*
X194217731Y-189203152D01*
X194217731Y-189203152D02*
X194027255Y-189203152D01*
X194027255Y-189203152D02*
X193932017Y-189250771D01*
X194360588Y-189822200D02*
X194265350Y-189869819D01*
X194265350Y-189869819D02*
X194027255Y-189869819D01*
X194027255Y-189869819D02*
X193932017Y-189822200D01*
X193932017Y-189822200D02*
X193884398Y-189726961D01*
X193884398Y-189726961D02*
X193884398Y-189631723D01*
X193884398Y-189631723D02*
X193932017Y-189536485D01*
X193932017Y-189536485D02*
X194027255Y-189488866D01*
X194027255Y-189488866D02*
X194265350Y-189488866D01*
X194265350Y-189488866D02*
X194360588Y-189441247D01*
X194979636Y-189869819D02*
X194884398Y-189822200D01*
X194884398Y-189822200D02*
X194836779Y-189726961D01*
X194836779Y-189726961D02*
X194836779Y-188869819D01*
X195122494Y-189965057D02*
X195884398Y-189965057D01*
X196122494Y-189869819D02*
X196122494Y-188869819D01*
X196122494Y-188869819D02*
X196360589Y-188869819D01*
X196360589Y-188869819D02*
X196503446Y-188917438D01*
X196503446Y-188917438D02*
X196598684Y-189012676D01*
X196598684Y-189012676D02*
X196646303Y-189107914D01*
X196646303Y-189107914D02*
X196693922Y-189298390D01*
X196693922Y-189298390D02*
X196693922Y-189441247D01*
X196693922Y-189441247D02*
X196646303Y-189631723D01*
X196646303Y-189631723D02*
X196598684Y-189726961D01*
X196598684Y-189726961D02*
X196503446Y-189822200D01*
X196503446Y-189822200D02*
X196360589Y-189869819D01*
X196360589Y-189869819D02*
X196122494Y-189869819D01*
X197122494Y-189869819D02*
X197122494Y-189203152D01*
X197122494Y-188869819D02*
X197074875Y-188917438D01*
X197074875Y-188917438D02*
X197122494Y-188965057D01*
X197122494Y-188965057D02*
X197170113Y-188917438D01*
X197170113Y-188917438D02*
X197122494Y-188869819D01*
X197122494Y-188869819D02*
X197122494Y-188965057D01*
X197503446Y-189203152D02*
X197741541Y-189869819D01*
X197741541Y-189869819D02*
X197979636Y-189203152D01*
X198360589Y-189869819D02*
X198360589Y-189203152D01*
X198360589Y-188869819D02*
X198312970Y-188917438D01*
X198312970Y-188917438D02*
X198360589Y-188965057D01*
X198360589Y-188965057D02*
X198408208Y-188917438D01*
X198408208Y-188917438D02*
X198360589Y-188869819D01*
X198360589Y-188869819D02*
X198360589Y-188965057D01*
X198836779Y-189203152D02*
X198836779Y-189869819D01*
X198836779Y-189298390D02*
X198884398Y-189250771D01*
X198884398Y-189250771D02*
X198979636Y-189203152D01*
X198979636Y-189203152D02*
X199122493Y-189203152D01*
X199122493Y-189203152D02*
X199217731Y-189250771D01*
X199217731Y-189250771D02*
X199265350Y-189346009D01*
X199265350Y-189346009D02*
X199265350Y-189869819D01*
X200170112Y-189203152D02*
X200170112Y-190012676D01*
X200170112Y-190012676D02*
X200122493Y-190107914D01*
X200122493Y-190107914D02*
X200074874Y-190155533D01*
X200074874Y-190155533D02*
X199979636Y-190203152D01*
X199979636Y-190203152D02*
X199836779Y-190203152D01*
X199836779Y-190203152D02*
X199741541Y-190155533D01*
X200170112Y-189822200D02*
X200074874Y-189869819D01*
X200074874Y-189869819D02*
X199884398Y-189869819D01*
X199884398Y-189869819D02*
X199789160Y-189822200D01*
X199789160Y-189822200D02*
X199741541Y-189774580D01*
X199741541Y-189774580D02*
X199693922Y-189679342D01*
X199693922Y-189679342D02*
X199693922Y-189393628D01*
X199693922Y-189393628D02*
X199741541Y-189298390D01*
X199741541Y-189298390D02*
X199789160Y-189250771D01*
X199789160Y-189250771D02*
X199884398Y-189203152D01*
X199884398Y-189203152D02*
X200074874Y-189203152D01*
X200074874Y-189203152D02*
X200170112Y-189250771D01*
X200646303Y-189869819D02*
X200646303Y-188869819D01*
X200646303Y-188869819D02*
X201027255Y-188869819D01*
X201027255Y-188869819D02*
X201122493Y-188917438D01*
X201122493Y-188917438D02*
X201170112Y-188965057D01*
X201170112Y-188965057D02*
X201217731Y-189060295D01*
X201217731Y-189060295D02*
X201217731Y-189203152D01*
X201217731Y-189203152D02*
X201170112Y-189298390D01*
X201170112Y-189298390D02*
X201122493Y-189346009D01*
X201122493Y-189346009D02*
X201027255Y-189393628D01*
X201027255Y-189393628D02*
X200646303Y-189393628D01*
X201646303Y-189869819D02*
X201646303Y-189203152D01*
X201646303Y-189393628D02*
X201693922Y-189298390D01*
X201693922Y-189298390D02*
X201741541Y-189250771D01*
X201741541Y-189250771D02*
X201836779Y-189203152D01*
X201836779Y-189203152D02*
X201932017Y-189203152D01*
X202646303Y-189822200D02*
X202551065Y-189869819D01*
X202551065Y-189869819D02*
X202360589Y-189869819D01*
X202360589Y-189869819D02*
X202265351Y-189822200D01*
X202265351Y-189822200D02*
X202217732Y-189726961D01*
X202217732Y-189726961D02*
X202217732Y-189346009D01*
X202217732Y-189346009D02*
X202265351Y-189250771D01*
X202265351Y-189250771D02*
X202360589Y-189203152D01*
X202360589Y-189203152D02*
X202551065Y-189203152D01*
X202551065Y-189203152D02*
X202646303Y-189250771D01*
X202646303Y-189250771D02*
X202693922Y-189346009D01*
X202693922Y-189346009D02*
X202693922Y-189441247D01*
X202693922Y-189441247D02*
X202217732Y-189536485D01*
X203074875Y-189822200D02*
X203170113Y-189869819D01*
X203170113Y-189869819D02*
X203360589Y-189869819D01*
X203360589Y-189869819D02*
X203455827Y-189822200D01*
X203455827Y-189822200D02*
X203503446Y-189726961D01*
X203503446Y-189726961D02*
X203503446Y-189679342D01*
X203503446Y-189679342D02*
X203455827Y-189584104D01*
X203455827Y-189584104D02*
X203360589Y-189536485D01*
X203360589Y-189536485D02*
X203217732Y-189536485D01*
X203217732Y-189536485D02*
X203122494Y-189488866D01*
X203122494Y-189488866D02*
X203074875Y-189393628D01*
X203074875Y-189393628D02*
X203074875Y-189346009D01*
X203074875Y-189346009D02*
X203122494Y-189250771D01*
X203122494Y-189250771D02*
X203217732Y-189203152D01*
X203217732Y-189203152D02*
X203360589Y-189203152D01*
X203360589Y-189203152D02*
X203455827Y-189250771D01*
X203884399Y-189822200D02*
X203979637Y-189869819D01*
X203979637Y-189869819D02*
X204170113Y-189869819D01*
X204170113Y-189869819D02*
X204265351Y-189822200D01*
X204265351Y-189822200D02*
X204312970Y-189726961D01*
X204312970Y-189726961D02*
X204312970Y-189679342D01*
X204312970Y-189679342D02*
X204265351Y-189584104D01*
X204265351Y-189584104D02*
X204170113Y-189536485D01*
X204170113Y-189536485D02*
X204027256Y-189536485D01*
X204027256Y-189536485D02*
X203932018Y-189488866D01*
X203932018Y-189488866D02*
X203884399Y-189393628D01*
X203884399Y-189393628D02*
X203884399Y-189346009D01*
X203884399Y-189346009D02*
X203932018Y-189250771D01*
X203932018Y-189250771D02*
X204027256Y-189203152D01*
X204027256Y-189203152D02*
X204170113Y-189203152D01*
X204170113Y-189203152D02*
X204265351Y-189250771D01*
X205170113Y-189203152D02*
X205170113Y-189869819D01*
X204741542Y-189203152D02*
X204741542Y-189726961D01*
X204741542Y-189726961D02*
X204789161Y-189822200D01*
X204789161Y-189822200D02*
X204884399Y-189869819D01*
X204884399Y-189869819D02*
X205027256Y-189869819D01*
X205027256Y-189869819D02*
X205122494Y-189822200D01*
X205122494Y-189822200D02*
X205170113Y-189774580D01*
X205646304Y-189869819D02*
X205646304Y-189203152D01*
X205646304Y-189393628D02*
X205693923Y-189298390D01*
X205693923Y-189298390D02*
X205741542Y-189250771D01*
X205741542Y-189250771D02*
X205836780Y-189203152D01*
X205836780Y-189203152D02*
X205932018Y-189203152D01*
X206646304Y-189822200D02*
X206551066Y-189869819D01*
X206551066Y-189869819D02*
X206360590Y-189869819D01*
X206360590Y-189869819D02*
X206265352Y-189822200D01*
X206265352Y-189822200D02*
X206217733Y-189726961D01*
X206217733Y-189726961D02*
X206217733Y-189346009D01*
X206217733Y-189346009D02*
X206265352Y-189250771D01*
X206265352Y-189250771D02*
X206360590Y-189203152D01*
X206360590Y-189203152D02*
X206551066Y-189203152D01*
X206551066Y-189203152D02*
X206646304Y-189250771D01*
X206646304Y-189250771D02*
X206693923Y-189346009D01*
X206693923Y-189346009D02*
X206693923Y-189441247D01*
X206693923Y-189441247D02*
X206217733Y-189536485D01*
X206884400Y-189965057D02*
X207646304Y-189965057D01*
X207884400Y-189869819D02*
X207884400Y-188869819D01*
X207884400Y-188869819D02*
X208265352Y-188869819D01*
X208265352Y-188869819D02*
X208360590Y-188917438D01*
X208360590Y-188917438D02*
X208408209Y-188965057D01*
X208408209Y-188965057D02*
X208455828Y-189060295D01*
X208455828Y-189060295D02*
X208455828Y-189203152D01*
X208455828Y-189203152D02*
X208408209Y-189298390D01*
X208408209Y-189298390D02*
X208360590Y-189346009D01*
X208360590Y-189346009D02*
X208265352Y-189393628D01*
X208265352Y-189393628D02*
X207884400Y-189393628D01*
X209455828Y-189774580D02*
X209408209Y-189822200D01*
X209408209Y-189822200D02*
X209265352Y-189869819D01*
X209265352Y-189869819D02*
X209170114Y-189869819D01*
X209170114Y-189869819D02*
X209027257Y-189822200D01*
X209027257Y-189822200D02*
X208932019Y-189726961D01*
X208932019Y-189726961D02*
X208884400Y-189631723D01*
X208884400Y-189631723D02*
X208836781Y-189441247D01*
X208836781Y-189441247D02*
X208836781Y-189298390D01*
X208836781Y-189298390D02*
X208884400Y-189107914D01*
X208884400Y-189107914D02*
X208932019Y-189012676D01*
X208932019Y-189012676D02*
X209027257Y-188917438D01*
X209027257Y-188917438D02*
X209170114Y-188869819D01*
X209170114Y-188869819D02*
X209265352Y-188869819D01*
X209265352Y-188869819D02*
X209408209Y-188917438D01*
X209408209Y-188917438D02*
X209455828Y-188965057D01*
X210217733Y-189346009D02*
X210360590Y-189393628D01*
X210360590Y-189393628D02*
X210408209Y-189441247D01*
X210408209Y-189441247D02*
X210455828Y-189536485D01*
X210455828Y-189536485D02*
X210455828Y-189679342D01*
X210455828Y-189679342D02*
X210408209Y-189774580D01*
X210408209Y-189774580D02*
X210360590Y-189822200D01*
X210360590Y-189822200D02*
X210265352Y-189869819D01*
X210265352Y-189869819D02*
X209884400Y-189869819D01*
X209884400Y-189869819D02*
X209884400Y-188869819D01*
X209884400Y-188869819D02*
X210217733Y-188869819D01*
X210217733Y-188869819D02*
X210312971Y-188917438D01*
X210312971Y-188917438D02*
X210360590Y-188965057D01*
X210360590Y-188965057D02*
X210408209Y-189060295D01*
X210408209Y-189060295D02*
X210408209Y-189155533D01*
X210408209Y-189155533D02*
X210360590Y-189250771D01*
X210360590Y-189250771D02*
X210312971Y-189298390D01*
X210312971Y-189298390D02*
X210217733Y-189346009D01*
X210217733Y-189346009D02*
X209884400Y-189346009D01*
X210646305Y-189965057D02*
X211408209Y-189965057D01*
X211551067Y-188869819D02*
X212217733Y-189869819D01*
X212217733Y-188869819D02*
X211551067Y-189869819D01*
X212598686Y-189869819D02*
X212598686Y-189203152D01*
X212598686Y-188869819D02*
X212551067Y-188917438D01*
X212551067Y-188917438D02*
X212598686Y-188965057D01*
X212598686Y-188965057D02*
X212646305Y-188917438D01*
X212646305Y-188917438D02*
X212598686Y-188869819D01*
X212598686Y-188869819D02*
X212598686Y-188965057D01*
X213074876Y-189203152D02*
X213074876Y-189869819D01*
X213074876Y-189298390D02*
X213122495Y-189250771D01*
X213122495Y-189250771D02*
X213217733Y-189203152D01*
X213217733Y-189203152D02*
X213360590Y-189203152D01*
X213360590Y-189203152D02*
X213455828Y-189250771D01*
X213455828Y-189250771D02*
X213503447Y-189346009D01*
X213503447Y-189346009D02*
X213503447Y-189869819D01*
X213884400Y-189203152D02*
X214122495Y-189869819D01*
X214360590Y-189203152D02*
X214122495Y-189869819D01*
X214122495Y-189869819D02*
X214027257Y-190107914D01*
X214027257Y-190107914D02*
X213979638Y-190155533D01*
X213979638Y-190155533D02*
X213884400Y-190203152D01*
X215170114Y-189203152D02*
X215170114Y-189869819D01*
X214741543Y-189203152D02*
X214741543Y-189726961D01*
X214741543Y-189726961D02*
X214789162Y-189822200D01*
X214789162Y-189822200D02*
X214884400Y-189869819D01*
X214884400Y-189869819D02*
X215027257Y-189869819D01*
X215027257Y-189869819D02*
X215122495Y-189822200D01*
X215122495Y-189822200D02*
X215170114Y-189774580D01*
X215551067Y-188869819D02*
X215789162Y-189869819D01*
X215789162Y-189869819D02*
X215979638Y-189155533D01*
X215979638Y-189155533D02*
X216170114Y-189869819D01*
X216170114Y-189869819D02*
X216408210Y-188869819D01*
X217217733Y-189869819D02*
X217217733Y-189346009D01*
X217217733Y-189346009D02*
X217170114Y-189250771D01*
X217170114Y-189250771D02*
X217074876Y-189203152D01*
X217074876Y-189203152D02*
X216884400Y-189203152D01*
X216884400Y-189203152D02*
X216789162Y-189250771D01*
X217217733Y-189822200D02*
X217122495Y-189869819D01*
X217122495Y-189869819D02*
X216884400Y-189869819D01*
X216884400Y-189869819D02*
X216789162Y-189822200D01*
X216789162Y-189822200D02*
X216741543Y-189726961D01*
X216741543Y-189726961D02*
X216741543Y-189631723D01*
X216741543Y-189631723D02*
X216789162Y-189536485D01*
X216789162Y-189536485D02*
X216884400Y-189488866D01*
X216884400Y-189488866D02*
X217122495Y-189488866D01*
X217122495Y-189488866D02*
X217217733Y-189441247D01*
X217693924Y-189203152D02*
X217693924Y-189869819D01*
X217693924Y-189298390D02*
X217741543Y-189250771D01*
X217741543Y-189250771D02*
X217836781Y-189203152D01*
X217836781Y-189203152D02*
X217979638Y-189203152D01*
X217979638Y-189203152D02*
X218074876Y-189250771D01*
X218074876Y-189250771D02*
X218122495Y-189346009D01*
X218122495Y-189346009D02*
X218122495Y-189869819D01*
X219027257Y-189203152D02*
X219027257Y-190012676D01*
X219027257Y-190012676D02*
X218979638Y-190107914D01*
X218979638Y-190107914D02*
X218932019Y-190155533D01*
X218932019Y-190155533D02*
X218836781Y-190203152D01*
X218836781Y-190203152D02*
X218693924Y-190203152D01*
X218693924Y-190203152D02*
X218598686Y-190155533D01*
X219027257Y-189822200D02*
X218932019Y-189869819D01*
X218932019Y-189869819D02*
X218741543Y-189869819D01*
X218741543Y-189869819D02*
X218646305Y-189822200D01*
X218646305Y-189822200D02*
X218598686Y-189774580D01*
X218598686Y-189774580D02*
X218551067Y-189679342D01*
X218551067Y-189679342D02*
X218551067Y-189393628D01*
X218551067Y-189393628D02*
X218598686Y-189298390D01*
X218598686Y-189298390D02*
X218646305Y-189250771D01*
X218646305Y-189250771D02*
X218741543Y-189203152D01*
X218741543Y-189203152D02*
X218932019Y-189203152D01*
X218932019Y-189203152D02*
X219027257Y-189250771D01*
X219265353Y-189965057D02*
X220027257Y-189965057D01*
X220455829Y-188869819D02*
X220551067Y-188869819D01*
X220551067Y-188869819D02*
X220646305Y-188917438D01*
X220646305Y-188917438D02*
X220693924Y-188965057D01*
X220693924Y-188965057D02*
X220741543Y-189060295D01*
X220741543Y-189060295D02*
X220789162Y-189250771D01*
X220789162Y-189250771D02*
X220789162Y-189488866D01*
X220789162Y-189488866D02*
X220741543Y-189679342D01*
X220741543Y-189679342D02*
X220693924Y-189774580D01*
X220693924Y-189774580D02*
X220646305Y-189822200D01*
X220646305Y-189822200D02*
X220551067Y-189869819D01*
X220551067Y-189869819D02*
X220455829Y-189869819D01*
X220455829Y-189869819D02*
X220360591Y-189822200D01*
X220360591Y-189822200D02*
X220312972Y-189774580D01*
X220312972Y-189774580D02*
X220265353Y-189679342D01*
X220265353Y-189679342D02*
X220217734Y-189488866D01*
X220217734Y-189488866D02*
X220217734Y-189250771D01*
X220217734Y-189250771D02*
X220265353Y-189060295D01*
X220265353Y-189060295D02*
X220312972Y-188965057D01*
X220312972Y-188965057D02*
X220360591Y-188917438D01*
X220360591Y-188917438D02*
X220455829Y-188869819D01*
X221170115Y-188965057D02*
X221217734Y-188917438D01*
X221217734Y-188917438D02*
X221312972Y-188869819D01*
X221312972Y-188869819D02*
X221551067Y-188869819D01*
X221551067Y-188869819D02*
X221646305Y-188917438D01*
X221646305Y-188917438D02*
X221693924Y-188965057D01*
X221693924Y-188965057D02*
X221741543Y-189060295D01*
X221741543Y-189060295D02*
X221741543Y-189155533D01*
X221741543Y-189155533D02*
X221693924Y-189298390D01*
X221693924Y-189298390D02*
X221122496Y-189869819D01*
X221122496Y-189869819D02*
X221741543Y-189869819D01*
X222693924Y-189869819D02*
X222122496Y-189869819D01*
X222408210Y-189869819D02*
X222408210Y-188869819D01*
X222408210Y-188869819D02*
X222312972Y-189012676D01*
X222312972Y-189012676D02*
X222217734Y-189107914D01*
X222217734Y-189107914D02*
X222122496Y-189155533D01*
X223027258Y-188869819D02*
X223646305Y-188869819D01*
X223646305Y-188869819D02*
X223312972Y-189250771D01*
X223312972Y-189250771D02*
X223455829Y-189250771D01*
X223455829Y-189250771D02*
X223551067Y-189298390D01*
X223551067Y-189298390D02*
X223598686Y-189346009D01*
X223598686Y-189346009D02*
X223646305Y-189441247D01*
X223646305Y-189441247D02*
X223646305Y-189679342D01*
X223646305Y-189679342D02*
X223598686Y-189774580D01*
X223598686Y-189774580D02*
X223551067Y-189822200D01*
X223551067Y-189822200D02*
X223455829Y-189869819D01*
X223455829Y-189869819D02*
X223170115Y-189869819D01*
X223170115Y-189869819D02*
X223074877Y-189822200D01*
X223074877Y-189822200D02*
X223027258Y-189774580D01*
X223932020Y-188869819D02*
X224265353Y-189869819D01*
X224265353Y-189869819D02*
X224598686Y-188869819D01*
X224836782Y-188869819D02*
X225455829Y-188869819D01*
X225455829Y-188869819D02*
X225122496Y-189250771D01*
X225122496Y-189250771D02*
X225265353Y-189250771D01*
X225265353Y-189250771D02*
X225360591Y-189298390D01*
X225360591Y-189298390D02*
X225408210Y-189346009D01*
X225408210Y-189346009D02*
X225455829Y-189441247D01*
X225455829Y-189441247D02*
X225455829Y-189679342D01*
X225455829Y-189679342D02*
X225408210Y-189774580D01*
X225408210Y-189774580D02*
X225360591Y-189822200D01*
X225360591Y-189822200D02*
X225265353Y-189869819D01*
X225265353Y-189869819D02*
X224979639Y-189869819D01*
X224979639Y-189869819D02*
X224884401Y-189822200D01*
X224884401Y-189822200D02*
X224836782Y-189774580D01*
D10*
%TO.C,M3*%
X112352527Y-67902527D02*
G75*
G02*
X110452527Y-67902527I-950000J0D01*
G01*
X110452527Y-67902527D02*
G75*
G02*
X112352527Y-67902527I950000J0D01*
G01*
X117202527Y-76902527D02*
G75*
G02*
X114602527Y-76902527I-1300000J0D01*
G01*
X114602527Y-76902527D02*
G75*
G02*
X117202527Y-76902527I1300000J0D01*
G01*
X126852527Y-57902527D02*
G75*
G02*
X122952527Y-57902527I-1950000J0D01*
G01*
X122952527Y-57902527D02*
G75*
G02*
X126852527Y-57902527I1950000J0D01*
G01*
X135202527Y-76902527D02*
G75*
G02*
X132602527Y-76902527I-1300000J0D01*
G01*
X132602527Y-76902527D02*
G75*
G02*
X135202527Y-76902527I1300000J0D01*
G01*
X139352527Y-67902527D02*
G75*
G02*
X137452527Y-67902527I-950000J0D01*
G01*
X137452527Y-67902527D02*
G75*
G02*
X139352527Y-67902527I950000J0D01*
G01*
%TD*%
M02*
