M48
; DRILL file {KiCad 8.0.7} date 2025-02-27T15:03:52-0800
; FORMAT={-:-/ absolute / inch / decimal}
; #@! TF.CreationDate,2025-02-27T15:03:52-08:00
; #@! TF.GenerationSoftware,Kicad,Pcbnew,8.0.7
; #@! TF.FileFunction,Plated,1,2,PTH
FMAT,2
INCH
; #@! TA.AperFunction,Plated,PTH,ViaDrill
T1C0.0118
; #@! TA.AperFunction,Plated,PTH,ComponentDrill
T2C0.0295
; #@! TA.AperFunction,Plated,PTH,ComponentDrill
T3C0.0335
; #@! TA.AperFunction,Plated,PTH,ComponentDrill
T4C0.0354
; #@! TA.AperFunction,Plated,PTH,ComponentDrill
T5C0.0394
; #@! TA.AperFunction,Plated,PTH,ComponentDrill
T6C0.0400
%
G90
G05
T1
X4.8781Y-3.3623
X4.9749Y-3.5985
X5.134Y-3.5001
X5.6335Y-3.1777
X6.3289Y-3.2777
X6.3976Y-3.0315
X6.6732Y-2.9921
X6.6732Y-3.248
T2
X6.8859Y-3.4233
X6.9647Y-3.4233
T3
X4.4674Y-2.5233
X4.4674Y-2.8233
X5.3674Y-2.5233
X5.3674Y-2.8233
T4
X5.9107Y-4.13
X6.0107Y-4.13
T5
X4.7749Y-3.7324
X4.8749Y-3.7324
X4.9749Y-3.7324
X5.0749Y-3.7324
X6.5316Y-3.9529
X6.5316Y-4.0529
X6.5316Y-4.1529
X6.945Y-3.8529
X6.945Y-3.9529
X6.945Y-4.0529
X6.945Y-4.1529
T6
X5.9214Y-2.9245
X5.9214Y-3.0245
X5.9214Y-3.1245
X5.9214Y-3.2245
X5.9214Y-3.3245
X5.9214Y-3.4245
X5.9214Y-3.5245
X6.5214Y-2.9245
X6.5214Y-3.0245
X6.5214Y-3.1245
X6.5214Y-3.2245
X6.5214Y-3.3245
X6.5214Y-3.4245
X6.5214Y-3.5245
M30
